<?xml version="1.0" encoding="UTF-8"?>
<svg width="20px" height="23px" viewBox="0 0 20 23" version="1.1" xmlns="http://www.w3.org/2000/svg" xmlns:xlink="http://www.w3.org/1999/xlink">
    <title>icon / 22 / System / Cart</title>
    <g id="$$-Assets" stroke="none" stroke-width="1" fill="none" fill-rule="evenodd" opacity="0.699999988">
        <g id="section-/-header-/-Default" transform="translate(-1462.000000, -13.000000)" fill="#FFFFFF">
            <g id="right" transform="translate(928.000000, 11.000000)">
                <g id="icon-/-22-/-System-/-Cart" transform="translate(532.000000, 1.000000)">
                    <path d="M17.144484,6.0015395 L17.6363219,6.01379596 C18.5537651,6.05046611 19.0897919,6.15976206 19.5320441,6.33596793 L19.7466873,6.42962023 C19.8165179,6.46267863 19.8850754,6.49756918 19.9536914,6.53426541 C20.6055433,6.88287959 21.1171204,7.39445674 21.4657346,8.04630859 C21.5024308,8.11492458 21.5373214,8.18348206 21.5703798,8.25331273 L21.6640321,8.46795593 C21.8402379,8.91020809 21.9495339,9.44623491 21.986204,10.3636781 L21.9984605,10.855516 C21.9994857,10.9432303 22,11.0339263 22,11.1277704 L22,18.8722296 L21.9984605,19.144484 L21.986204,19.6363219 C21.9495339,20.5537651 21.8402379,21.0897919 21.6640321,21.5320441 L21.5703798,21.7466873 C21.5373214,21.8165179 21.5024308,21.8850754 21.4657346,21.9536914 C21.1171204,22.6055433 20.6055433,23.1171204 19.9536914,23.4657346 C19.8850754,23.5024308 19.8165179,23.5373214 19.7466873,23.5703798 L19.5320441,23.6640321 C19.0897919,23.8402379 18.5537651,23.9495339 17.6363219,23.986204 L17.144484,23.9984605 L17.0106554,23.9996147 L17.0106554,23.9996147 L7.1277704,24 L6.85551601,23.9984605 L6.36367807,23.986204 C5.44623491,23.9495339 4.91020809,23.8402379 4.46795593,23.6640321 L4.25331273,23.5703798 C4.18348206,23.5373214 4.11492458,23.5024308 4.04630859,23.4657346 C3.39445674,23.1171204 2.88287959,22.6055433 2.53426541,21.9536914 C2.49756918,21.8850754 2.46267863,21.8165179 2.42962023,21.7466873 L2.33596793,21.5320441 C2.15976206,21.0897919 2.05046611,20.5537651 2.01379596,19.6363219 L2.0015395,19.144484 C2.00051427,19.0567697 2,18.9660737 2,18.8722296 L2.0015395,10.855516 L2.01379596,10.3636781 C2.05046611,9.44623491 2.15976206,8.91020809 2.33596793,8.46795593 L2.42962023,8.25331273 C2.46267863,8.18348206 2.49756918,8.11492458 2.53426541,8.04630859 C2.88287959,7.39445674 3.39445674,6.88287959 4.04630859,6.53426541 C4.11492458,6.49756918 4.18348206,6.46267863 4.25331273,6.42962023 L4.46795593,6.33596793 C4.91020809,6.15976206 5.44623491,6.05046611 6.36367807,6.01379596 L6.85551601,6.0015395 L17.144484,6.0015395 Z M17.1098626,8.00092794 L6.8901374,8.00092794 L6.47415795,8.00863429 L6.12815544,8.0247698 C5.65619135,8.05567207 5.38365881,8.11756835 5.14522493,8.22191375 L4.98950631,8.2978918 C4.68619141,8.46010639 4.46010639,8.68619141 4.2978918,8.98950631 L4.22191375,9.14522493 C4.11756835,9.38365881 4.05567207,9.65619135 4.0247698,10.1281554 L4.00863429,10.4741579 L4.00092794,10.8901374 L4.00092794,19.1098626 L4.00863429,19.5258421 L4.0247698,19.8718446 C4.05567207,20.3438087 4.11756835,20.6163412 4.22191375,20.8547751 L4.2978918,21.0104937 C4.46010639,21.3138086 4.68619141,21.5398936 4.98950631,21.7021082 L5.14522493,21.7780863 C5.38365881,21.8824316 5.65619135,21.9443279 6.12815544,21.9752302 L6.47415795,21.9913657 L6.8901374,21.9990721 L17.1098626,21.9990721 L17.5258421,21.9913657 L17.8718446,21.9752302 C18.3438087,21.9443279 18.6163412,21.8824316 18.8547751,21.7780863 L19.0104937,21.7021082 C19.3138086,21.5398936 19.5398936,21.3138086 19.7021082,21.0104937 L19.7780863,20.8547751 C19.8824316,20.6163412 19.9443279,20.3438087 19.9752302,19.8718446 L19.9913657,19.5258421 L19.9990721,19.1098626 L19.9990721,10.8901374 L19.9913657,10.4741579 L19.9752302,10.1281554 C19.9443279,9.65619135 19.8824316,9.38365881 19.7780863,9.14522493 L19.7021082,8.98950631 C19.5398936,8.68619141 19.3138086,8.46010639 19.0104937,8.2978918 L18.8547751,8.22191375 C18.6163412,8.11756835 18.3438087,8.05567207 17.8718446,8.0247698 L17.5258421,8.00863429 L17.1098626,8.00092794 Z M12,1 C14.4852814,1 16.5,3.01471863 16.5,5.5 C16.5,5.66924732 16.4906566,5.83631236 16.4724574,6.00070744 L14.4499027,6.00043449 C14.482754,5.83874484 14.5,5.67138643 14.5,5.5 C14.5,4.11928813 13.3807119,3 12,3 C10.6192881,3 9.5,4.11928813 9.5,5.5 C9.5,5.67138643 9.51724601,5.83874484 9.55009729,6.00043449 L7.52754265,6.00070744 C7.50934344,5.83631236 7.5,5.66924732 7.5,5.5 C7.5,3.01471863 9.51471863,1 12,1 Z" id="Combined-Shape"></path>
                </g>
            </g>
        </g>
    </g>
</svg>