<svg width="28" height="28" viewBox="0 0 28 28" fill="none" xmlns="http://www.w3.org/2000/svg">
<path fill-rule="evenodd" clip-rule="evenodd" d="M13.4173 15.1669H11.6673L5.83391 18.6669V14.9558C2.0906 14.0695 -0.395196 10.5197 0.0518801 6.69894C0.498957 2.8782 3.73712 -0.00179692 7.58393 8.41188e-07H13.4173C17.6056 8.41188e-07 21.0008 3.39522 21.0008 7.58344C21.0008 11.7717 17.6056 15.1669 13.4173 15.1669ZM13.4174 17.4992C18.0282 17.4915 22.0267 14.3101 23.0704 9.81897C26.1976 10.9837 28.1941 14.0579 27.9862 17.3885C27.7784 20.7191 25.4153 23.5213 22.1675 24.2883V27.9994L16.3341 24.4993H14.5841C11.6814 24.4979 9.03465 22.8383 7.76917 20.226L12.3137 17.4992H13.4174Z" fill="white"/>
</svg>
